<mxfile host="app.diagrams.net" modified="2023-11-28T12:58:36.226Z" agent="Mozilla/5.0 (Windows NT 10.0; Win64; x64) AppleWebKit/537.36 (KHTML, like Gecko) Chrome/119.0.0.0 Safari/537.36" etag="OGmrDwhhQhQIk5Tehj-A" version="22.1.4" type="github" pages="3">
  <diagram name="第 1 页" id="CzuXLzXUoEL7Za8PlFhb">
    <mxGraphModel dx="1195" dy="653" grid="0" gridSize="10" guides="1" tooltips="1" connect="1" arrows="1" fold="1" page="1" pageScale="1" pageWidth="827" pageHeight="1169" math="0" shadow="0">
      <root>
        <mxCell id="0" />
        <mxCell id="1" parent="0" />
        <mxCell id="pc-rvpGR9uYceZMDsU-g-1" value="Encoder" style="rounded=0;whiteSpace=wrap;html=1;" vertex="1" parent="1">
          <mxGeometry x="253" y="353" width="326" height="60" as="geometry" />
        </mxCell>
        <mxCell id="pc-rvpGR9uYceZMDsU-g-2" value="句子：" style="text;html=1;align=center;verticalAlign=middle;resizable=0;points=[];autosize=1;strokeColor=none;fillColor=none;" vertex="1" parent="1">
          <mxGeometry x="197" y="453" width="54" height="26" as="geometry" />
        </mxCell>
        <mxCell id="pc-rvpGR9uYceZMDsU-g-3" value="Find" style="text;html=1;align=center;verticalAlign=middle;resizable=0;points=[];autosize=1;strokeColor=none;fillColor=none;" vertex="1" parent="1">
          <mxGeometry x="270" y="453" width="41" height="26" as="geometry" />
        </mxCell>
        <mxCell id="pc-rvpGR9uYceZMDsU-g-4" value="fights" style="text;html=1;align=center;verticalAlign=middle;resizable=0;points=[];autosize=1;strokeColor=none;fillColor=none;" vertex="1" parent="1">
          <mxGeometry x="318" y="453" width="47" height="26" as="geometry" />
        </mxCell>
        <mxCell id="pc-rvpGR9uYceZMDsU-g-5" value="to" style="text;html=1;align=center;verticalAlign=middle;resizable=0;points=[];autosize=1;strokeColor=none;fillColor=none;" vertex="1" parent="1">
          <mxGeometry x="374" y="453" width="28" height="26" as="geometry" />
        </mxCell>
        <mxCell id="pc-rvpGR9uYceZMDsU-g-6" value="new" style="text;html=1;align=center;verticalAlign=middle;resizable=0;points=[];autosize=1;strokeColor=none;fillColor=none;" vertex="1" parent="1">
          <mxGeometry x="414" y="453" width="40" height="26" as="geometry" />
        </mxCell>
        <mxCell id="pc-rvpGR9uYceZMDsU-g-7" value="york" style="text;html=1;align=center;verticalAlign=middle;resizable=0;points=[];autosize=1;strokeColor=none;fillColor=none;" vertex="1" parent="1">
          <mxGeometry x="466" y="453" width="41" height="26" as="geometry" />
        </mxCell>
        <mxCell id="pc-rvpGR9uYceZMDsU-g-8" value="tomorrow" style="text;html=1;align=center;verticalAlign=middle;resizable=0;points=[];autosize=1;strokeColor=none;fillColor=none;" vertex="1" parent="1">
          <mxGeometry x="511" y="453" width="68" height="26" as="geometry" />
        </mxCell>
        <mxCell id="pc-rvpGR9uYceZMDsU-g-11" value="" style="endArrow=classic;html=1;rounded=0;exitX=0.455;exitY=-0.077;exitDx=0;exitDy=0;exitPerimeter=0;" edge="1" parent="1">
          <mxGeometry width="50" height="50" relative="1" as="geometry">
            <mxPoint x="436" y="452" as="sourcePoint" />
            <mxPoint x="436" y="423" as="targetPoint" />
          </mxGeometry>
        </mxCell>
        <mxCell id="pc-rvpGR9uYceZMDsU-g-12" value="" style="endArrow=classic;html=1;rounded=0;exitX=0.455;exitY=-0.077;exitDx=0;exitDy=0;exitPerimeter=0;" edge="1" parent="1">
          <mxGeometry width="50" height="50" relative="1" as="geometry">
            <mxPoint x="387.58" y="452" as="sourcePoint" />
            <mxPoint x="387.58" y="423" as="targetPoint" />
          </mxGeometry>
        </mxCell>
        <mxCell id="pc-rvpGR9uYceZMDsU-g-13" value="" style="endArrow=classic;html=1;rounded=0;exitX=0.455;exitY=-0.077;exitDx=0;exitDy=0;exitPerimeter=0;" edge="1" parent="1">
          <mxGeometry width="50" height="50" relative="1" as="geometry">
            <mxPoint x="341.08000000000004" y="452" as="sourcePoint" />
            <mxPoint x="341.08000000000004" y="423" as="targetPoint" />
          </mxGeometry>
        </mxCell>
        <mxCell id="pc-rvpGR9uYceZMDsU-g-14" value="" style="endArrow=classic;html=1;rounded=0;exitX=0.455;exitY=-0.077;exitDx=0;exitDy=0;exitPerimeter=0;" edge="1" parent="1">
          <mxGeometry width="50" height="50" relative="1" as="geometry">
            <mxPoint x="290.08000000000004" y="452" as="sourcePoint" />
            <mxPoint x="290.08000000000004" y="423" as="targetPoint" />
          </mxGeometry>
        </mxCell>
        <mxCell id="pc-rvpGR9uYceZMDsU-g-15" value="" style="endArrow=classic;html=1;rounded=0;exitX=0.455;exitY=-0.077;exitDx=0;exitDy=0;exitPerimeter=0;" edge="1" parent="1">
          <mxGeometry width="50" height="50" relative="1" as="geometry">
            <mxPoint x="544.58" y="452" as="sourcePoint" />
            <mxPoint x="544.58" y="423" as="targetPoint" />
          </mxGeometry>
        </mxCell>
        <mxCell id="pc-rvpGR9uYceZMDsU-g-16" value="" style="endArrow=classic;html=1;rounded=0;exitX=0.455;exitY=-0.077;exitDx=0;exitDy=0;exitPerimeter=0;" edge="1" parent="1">
          <mxGeometry width="50" height="50" relative="1" as="geometry">
            <mxPoint x="486.08000000000004" y="452" as="sourcePoint" />
            <mxPoint x="486.08000000000004" y="423" as="targetPoint" />
          </mxGeometry>
        </mxCell>
        <mxCell id="pc-rvpGR9uYceZMDsU-g-41" value="" style="endArrow=classic;html=1;rounded=0;exitX=0.455;exitY=-0.077;exitDx=0;exitDy=0;exitPerimeter=0;" edge="1" parent="1">
          <mxGeometry width="50" height="50" relative="1" as="geometry">
            <mxPoint x="436" y="344" as="sourcePoint" />
            <mxPoint x="436" y="315" as="targetPoint" />
          </mxGeometry>
        </mxCell>
        <mxCell id="pc-rvpGR9uYceZMDsU-g-42" value="" style="endArrow=classic;html=1;rounded=0;exitX=0.455;exitY=-0.077;exitDx=0;exitDy=0;exitPerimeter=0;" edge="1" parent="1">
          <mxGeometry width="50" height="50" relative="1" as="geometry">
            <mxPoint x="387.58" y="344" as="sourcePoint" />
            <mxPoint x="387.58" y="315" as="targetPoint" />
          </mxGeometry>
        </mxCell>
        <mxCell id="pc-rvpGR9uYceZMDsU-g-43" value="" style="endArrow=classic;html=1;rounded=0;exitX=0.455;exitY=-0.077;exitDx=0;exitDy=0;exitPerimeter=0;" edge="1" parent="1">
          <mxGeometry width="50" height="50" relative="1" as="geometry">
            <mxPoint x="341.08000000000004" y="344" as="sourcePoint" />
            <mxPoint x="341.08000000000004" y="315" as="targetPoint" />
          </mxGeometry>
        </mxCell>
        <mxCell id="pc-rvpGR9uYceZMDsU-g-44" value="" style="endArrow=classic;html=1;rounded=0;exitX=0.455;exitY=-0.077;exitDx=0;exitDy=0;exitPerimeter=0;" edge="1" parent="1">
          <mxGeometry width="50" height="50" relative="1" as="geometry">
            <mxPoint x="290.08000000000004" y="344" as="sourcePoint" />
            <mxPoint x="290.08000000000004" y="315" as="targetPoint" />
          </mxGeometry>
        </mxCell>
        <mxCell id="pc-rvpGR9uYceZMDsU-g-45" value="" style="endArrow=classic;html=1;rounded=0;exitX=0.455;exitY=-0.077;exitDx=0;exitDy=0;exitPerimeter=0;" edge="1" parent="1">
          <mxGeometry width="50" height="50" relative="1" as="geometry">
            <mxPoint x="544.58" y="344" as="sourcePoint" />
            <mxPoint x="544.58" y="315" as="targetPoint" />
          </mxGeometry>
        </mxCell>
        <mxCell id="pc-rvpGR9uYceZMDsU-g-46" value="" style="endArrow=classic;html=1;rounded=0;exitX=0.455;exitY=-0.077;exitDx=0;exitDy=0;exitPerimeter=0;" edge="1" parent="1">
          <mxGeometry width="50" height="50" relative="1" as="geometry">
            <mxPoint x="486.08000000000004" y="344" as="sourcePoint" />
            <mxPoint x="486.08000000000004" y="315" as="targetPoint" />
          </mxGeometry>
        </mxCell>
        <mxCell id="pc-rvpGR9uYceZMDsU-g-47" value="Decoder" style="rounded=0;whiteSpace=wrap;html=1;" vertex="1" parent="1">
          <mxGeometry x="251" y="247" width="326" height="60" as="geometry" />
        </mxCell>
        <mxCell id="pc-rvpGR9uYceZMDsU-g-48" value="" style="endArrow=classic;html=1;rounded=0;exitX=0.455;exitY=-0.077;exitDx=0;exitDy=0;exitPerimeter=0;" edge="1" parent="1">
          <mxGeometry width="50" height="50" relative="1" as="geometry">
            <mxPoint x="436" y="242" as="sourcePoint" />
            <mxPoint x="436" y="213" as="targetPoint" />
          </mxGeometry>
        </mxCell>
        <mxCell id="pc-rvpGR9uYceZMDsU-g-49" value="" style="endArrow=classic;html=1;rounded=0;exitX=0.455;exitY=-0.077;exitDx=0;exitDy=0;exitPerimeter=0;" edge="1" parent="1">
          <mxGeometry width="50" height="50" relative="1" as="geometry">
            <mxPoint x="387.58" y="242" as="sourcePoint" />
            <mxPoint x="387.58" y="213" as="targetPoint" />
          </mxGeometry>
        </mxCell>
        <mxCell id="pc-rvpGR9uYceZMDsU-g-50" value="" style="endArrow=classic;html=1;rounded=0;exitX=0.455;exitY=-0.077;exitDx=0;exitDy=0;exitPerimeter=0;" edge="1" parent="1">
          <mxGeometry width="50" height="50" relative="1" as="geometry">
            <mxPoint x="341.08000000000004" y="242" as="sourcePoint" />
            <mxPoint x="341.08000000000004" y="213" as="targetPoint" />
          </mxGeometry>
        </mxCell>
        <mxCell id="pc-rvpGR9uYceZMDsU-g-51" value="" style="endArrow=classic;html=1;rounded=0;exitX=0.455;exitY=-0.077;exitDx=0;exitDy=0;exitPerimeter=0;" edge="1" parent="1">
          <mxGeometry width="50" height="50" relative="1" as="geometry">
            <mxPoint x="290.08000000000004" y="242" as="sourcePoint" />
            <mxPoint x="290.08000000000004" y="213" as="targetPoint" />
          </mxGeometry>
        </mxCell>
        <mxCell id="pc-rvpGR9uYceZMDsU-g-52" value="" style="endArrow=classic;html=1;rounded=0;exitX=0.455;exitY=-0.077;exitDx=0;exitDy=0;exitPerimeter=0;" edge="1" parent="1">
          <mxGeometry width="50" height="50" relative="1" as="geometry">
            <mxPoint x="544.58" y="242" as="sourcePoint" />
            <mxPoint x="544.58" y="213" as="targetPoint" />
          </mxGeometry>
        </mxCell>
        <mxCell id="pc-rvpGR9uYceZMDsU-g-53" value="" style="endArrow=classic;html=1;rounded=0;exitX=0.455;exitY=-0.077;exitDx=0;exitDy=0;exitPerimeter=0;" edge="1" parent="1">
          <mxGeometry width="50" height="50" relative="1" as="geometry">
            <mxPoint x="486.08000000000004" y="242" as="sourcePoint" />
            <mxPoint x="486.08000000000004" y="213" as="targetPoint" />
          </mxGeometry>
        </mxCell>
        <mxCell id="pc-rvpGR9uYceZMDsU-g-54" value="槽类：" style="text;html=1;align=center;verticalAlign=middle;resizable=0;points=[];autosize=1;strokeColor=none;fillColor=none;" vertex="1" parent="1">
          <mxGeometry x="195" y="185" width="54" height="26" as="geometry" />
        </mxCell>
        <mxCell id="pc-rvpGR9uYceZMDsU-g-55" value="O" style="text;html=1;align=center;verticalAlign=middle;resizable=0;points=[];autosize=1;strokeColor=none;fillColor=none;" vertex="1" parent="1">
          <mxGeometry x="275" y="185" width="27" height="26" as="geometry" />
        </mxCell>
        <mxCell id="pc-rvpGR9uYceZMDsU-g-56" value="O" style="text;html=1;align=center;verticalAlign=middle;resizable=0;points=[];autosize=1;strokeColor=none;fillColor=none;" vertex="1" parent="1">
          <mxGeometry x="326" y="185" width="27" height="26" as="geometry" />
        </mxCell>
        <mxCell id="pc-rvpGR9uYceZMDsU-g-57" value="O" style="text;html=1;align=center;verticalAlign=middle;resizable=0;points=[];autosize=1;strokeColor=none;fillColor=none;" vertex="1" parent="1">
          <mxGeometry x="373" y="185" width="27" height="26" as="geometry" />
        </mxCell>
        <mxCell id="pc-rvpGR9uYceZMDsU-g-58" value="B-Dest" style="text;html=1;align=center;verticalAlign=middle;resizable=0;points=[];autosize=1;strokeColor=none;fillColor=none;" vertex="1" parent="1">
          <mxGeometry x="405" y="185" width="55" height="26" as="geometry" />
        </mxCell>
        <mxCell id="pc-rvpGR9uYceZMDsU-g-59" value="I-Dest" style="text;html=1;align=center;verticalAlign=middle;resizable=0;points=[];autosize=1;strokeColor=none;fillColor=none;" vertex="1" parent="1">
          <mxGeometry x="460" y="185" width="50" height="26" as="geometry" />
        </mxCell>
        <mxCell id="pc-rvpGR9uYceZMDsU-g-60" value="B-Date" style="text;html=1;align=center;verticalAlign=middle;resizable=0;points=[];autosize=1;strokeColor=none;fillColor=none;" vertex="1" parent="1">
          <mxGeometry x="516" y="185" width="55" height="26" as="geometry" />
        </mxCell>
        <mxCell id="pc-rvpGR9uYceZMDsU-g-61" value="句子：" style="text;html=1;align=center;verticalAlign=middle;resizable=0;points=[];autosize=1;strokeColor=none;fillColor=none;" vertex="1" parent="1">
          <mxGeometry x="198" y="617" width="54" height="26" as="geometry" />
        </mxCell>
        <mxCell id="pc-rvpGR9uYceZMDsU-g-62" value="Find" style="text;html=1;align=center;verticalAlign=middle;resizable=0;points=[];autosize=1;strokeColor=none;fillColor=none;" vertex="1" parent="1">
          <mxGeometry x="271" y="617" width="41" height="26" as="geometry" />
        </mxCell>
        <mxCell id="pc-rvpGR9uYceZMDsU-g-63" value="fights" style="text;html=1;align=center;verticalAlign=middle;resizable=0;points=[];autosize=1;strokeColor=none;fillColor=none;" vertex="1" parent="1">
          <mxGeometry x="319" y="617" width="47" height="26" as="geometry" />
        </mxCell>
        <mxCell id="pc-rvpGR9uYceZMDsU-g-64" value="to" style="text;html=1;align=center;verticalAlign=middle;resizable=0;points=[];autosize=1;strokeColor=none;fillColor=none;" vertex="1" parent="1">
          <mxGeometry x="375" y="617" width="28" height="26" as="geometry" />
        </mxCell>
        <mxCell id="pc-rvpGR9uYceZMDsU-g-65" value="new" style="text;html=1;align=center;verticalAlign=middle;resizable=0;points=[];autosize=1;strokeColor=none;fillColor=none;" vertex="1" parent="1">
          <mxGeometry x="415" y="617" width="40" height="26" as="geometry" />
        </mxCell>
        <mxCell id="pc-rvpGR9uYceZMDsU-g-66" value="york" style="text;html=1;align=center;verticalAlign=middle;resizable=0;points=[];autosize=1;strokeColor=none;fillColor=none;" vertex="1" parent="1">
          <mxGeometry x="467" y="617" width="41" height="26" as="geometry" />
        </mxCell>
        <mxCell id="pc-rvpGR9uYceZMDsU-g-67" value="tomorrow" style="text;html=1;align=center;verticalAlign=middle;resizable=0;points=[];autosize=1;strokeColor=none;fillColor=none;" vertex="1" parent="1">
          <mxGeometry x="512" y="617" width="68" height="26" as="geometry" />
        </mxCell>
        <mxCell id="pc-rvpGR9uYceZMDsU-g-68" value="" style="endArrow=classic;html=1;rounded=0;exitX=0.455;exitY=-0.077;exitDx=0;exitDy=0;exitPerimeter=0;" edge="1" parent="1">
          <mxGeometry width="50" height="50" relative="1" as="geometry">
            <mxPoint x="437" y="616" as="sourcePoint" />
            <mxPoint x="437" y="587" as="targetPoint" />
          </mxGeometry>
        </mxCell>
        <mxCell id="pc-rvpGR9uYceZMDsU-g-69" value="" style="endArrow=classic;html=1;rounded=0;exitX=0.455;exitY=-0.077;exitDx=0;exitDy=0;exitPerimeter=0;" edge="1" parent="1">
          <mxGeometry width="50" height="50" relative="1" as="geometry">
            <mxPoint x="388.58" y="616" as="sourcePoint" />
            <mxPoint x="388.58" y="587" as="targetPoint" />
          </mxGeometry>
        </mxCell>
        <mxCell id="pc-rvpGR9uYceZMDsU-g-70" value="" style="endArrow=classic;html=1;rounded=0;exitX=0.455;exitY=-0.077;exitDx=0;exitDy=0;exitPerimeter=0;" edge="1" parent="1">
          <mxGeometry width="50" height="50" relative="1" as="geometry">
            <mxPoint x="342.08000000000004" y="616" as="sourcePoint" />
            <mxPoint x="342.08000000000004" y="587" as="targetPoint" />
          </mxGeometry>
        </mxCell>
        <mxCell id="pc-rvpGR9uYceZMDsU-g-71" value="" style="endArrow=classic;html=1;rounded=0;exitX=0.455;exitY=-0.077;exitDx=0;exitDy=0;exitPerimeter=0;" edge="1" parent="1">
          <mxGeometry width="50" height="50" relative="1" as="geometry">
            <mxPoint x="291.08000000000004" y="616" as="sourcePoint" />
            <mxPoint x="291.08000000000004" y="587" as="targetPoint" />
          </mxGeometry>
        </mxCell>
        <mxCell id="pc-rvpGR9uYceZMDsU-g-72" value="" style="endArrow=classic;html=1;rounded=0;exitX=0.455;exitY=-0.077;exitDx=0;exitDy=0;exitPerimeter=0;" edge="1" parent="1">
          <mxGeometry width="50" height="50" relative="1" as="geometry">
            <mxPoint x="545.58" y="616" as="sourcePoint" />
            <mxPoint x="545.58" y="587" as="targetPoint" />
          </mxGeometry>
        </mxCell>
        <mxCell id="pc-rvpGR9uYceZMDsU-g-73" value="" style="endArrow=classic;html=1;rounded=0;exitX=0.455;exitY=-0.077;exitDx=0;exitDy=0;exitPerimeter=0;" edge="1" parent="1">
          <mxGeometry width="50" height="50" relative="1" as="geometry">
            <mxPoint x="487.08000000000004" y="616" as="sourcePoint" />
            <mxPoint x="487.08000000000004" y="587" as="targetPoint" />
          </mxGeometry>
        </mxCell>
      </root>
    </mxGraphModel>
  </diagram>
  <diagram id="vQDPvt3ecIJoSVcns_cN" name="第 2 页">
    <mxGraphModel dx="1434" dy="784" grid="0" gridSize="10" guides="1" tooltips="1" connect="1" arrows="1" fold="1" page="0" pageScale="1" pageWidth="827" pageHeight="1169" math="0" shadow="0">
      <root>
        <mxCell id="0" />
        <mxCell id="1" parent="0" />
        <mxCell id="wwv8mS522vPYZeWHUum3-2" value="Can" style="text;html=1;align=center;verticalAlign=middle;resizable=0;points=[];autosize=1;strokeColor=none;fillColor=none;" vertex="1" parent="1">
          <mxGeometry x="272" y="617" width="40" height="26" as="geometry" />
        </mxCell>
        <mxCell id="wwv8mS522vPYZeWHUum3-3" value="you&lt;span style=&quot;white-space: pre;&quot;&gt;&#x9;&lt;/span&gt;" style="text;html=1;align=center;verticalAlign=middle;resizable=0;points=[];autosize=1;strokeColor=none;fillColor=none;" vertex="1" parent="1">
          <mxGeometry x="320" y="617" width="45" height="26" as="geometry" />
        </mxCell>
        <mxCell id="wwv8mS522vPYZeWHUum3-4" value="put" style="text;html=1;align=center;verticalAlign=middle;resizable=0;points=[];autosize=1;strokeColor=none;fillColor=none;" vertex="1" parent="1">
          <mxGeometry x="372" y="617" width="35" height="26" as="geometry" />
        </mxCell>
        <mxCell id="wwv8mS522vPYZeWHUum3-5" value="this" style="text;html=1;align=center;verticalAlign=middle;resizable=0;points=[];autosize=1;strokeColor=none;fillColor=none;" vertex="1" parent="1">
          <mxGeometry x="417" y="617" width="37" height="26" as="geometry" />
        </mxCell>
        <mxCell id="wwv8mS522vPYZeWHUum3-6" value="tune" style="text;html=1;align=center;verticalAlign=middle;resizable=0;points=[];autosize=1;strokeColor=none;fillColor=none;" vertex="1" parent="1">
          <mxGeometry x="467" y="617" width="41" height="26" as="geometry" />
        </mxCell>
        <mxCell id="wwv8mS522vPYZeWHUum3-7" value="onto" style="text;html=1;align=center;verticalAlign=middle;resizable=0;points=[];autosize=1;strokeColor=none;fillColor=none;" vertex="1" parent="1">
          <mxGeometry x="526" y="617" width="41" height="26" as="geometry" />
        </mxCell>
        <mxCell id="wwv8mS522vPYZeWHUum3-8" value="" style="endArrow=classic;html=1;rounded=0;exitX=0.455;exitY=-0.077;exitDx=0;exitDy=0;exitPerimeter=0;" edge="1" parent="1">
          <mxGeometry width="50" height="50" relative="1" as="geometry">
            <mxPoint x="437" y="616" as="sourcePoint" />
            <mxPoint x="437" y="587" as="targetPoint" />
          </mxGeometry>
        </mxCell>
        <mxCell id="wwv8mS522vPYZeWHUum3-9" value="" style="endArrow=classic;html=1;rounded=0;exitX=0.455;exitY=-0.077;exitDx=0;exitDy=0;exitPerimeter=0;" edge="1" parent="1">
          <mxGeometry width="50" height="50" relative="1" as="geometry">
            <mxPoint x="388.58" y="616" as="sourcePoint" />
            <mxPoint x="388.58" y="587" as="targetPoint" />
          </mxGeometry>
        </mxCell>
        <mxCell id="wwv8mS522vPYZeWHUum3-10" value="" style="endArrow=classic;html=1;rounded=0;exitX=0.455;exitY=-0.077;exitDx=0;exitDy=0;exitPerimeter=0;" edge="1" parent="1">
          <mxGeometry width="50" height="50" relative="1" as="geometry">
            <mxPoint x="342.08000000000004" y="616" as="sourcePoint" />
            <mxPoint x="342.08000000000004" y="587" as="targetPoint" />
          </mxGeometry>
        </mxCell>
        <mxCell id="wwv8mS522vPYZeWHUum3-11" value="" style="endArrow=classic;html=1;rounded=0;exitX=0.455;exitY=-0.077;exitDx=0;exitDy=0;exitPerimeter=0;" edge="1" parent="1">
          <mxGeometry width="50" height="50" relative="1" as="geometry">
            <mxPoint x="291.08000000000004" y="616" as="sourcePoint" />
            <mxPoint x="291.08000000000004" y="587" as="targetPoint" />
          </mxGeometry>
        </mxCell>
        <mxCell id="wwv8mS522vPYZeWHUum3-12" value="" style="endArrow=classic;html=1;rounded=0;exitX=0.455;exitY=-0.077;exitDx=0;exitDy=0;exitPerimeter=0;" edge="1" parent="1">
          <mxGeometry width="50" height="50" relative="1" as="geometry">
            <mxPoint x="545.58" y="616" as="sourcePoint" />
            <mxPoint x="545.58" y="587" as="targetPoint" />
          </mxGeometry>
        </mxCell>
        <mxCell id="wwv8mS522vPYZeWHUum3-13" value="" style="endArrow=classic;html=1;rounded=0;exitX=0.455;exitY=-0.077;exitDx=0;exitDy=0;exitPerimeter=0;" edge="1" parent="1">
          <mxGeometry width="50" height="50" relative="1" as="geometry">
            <mxPoint x="487.08000000000004" y="616" as="sourcePoint" />
            <mxPoint x="487.08000000000004" y="587" as="targetPoint" />
          </mxGeometry>
        </mxCell>
        <mxCell id="wwv8mS522vPYZeWHUum3-14" value="&lt;font color=&quot;#ff3333&quot;&gt;latin&lt;/font&gt;" style="text;html=1;align=center;verticalAlign=middle;resizable=0;points=[];autosize=1;strokeColor=none;fillColor=none;" vertex="1" parent="1">
          <mxGeometry x="574" y="617" width="40" height="26" as="geometry" />
        </mxCell>
        <mxCell id="wwv8mS522vPYZeWHUum3-15" value="&lt;font color=&quot;#ff3333&quot;&gt;dance&lt;/font&gt;" style="text;html=1;align=center;verticalAlign=middle;resizable=0;points=[];autosize=1;strokeColor=none;fillColor=none;" vertex="1" parent="1">
          <mxGeometry x="619" y="617" width="51" height="26" as="geometry" />
        </mxCell>
        <mxCell id="wwv8mS522vPYZeWHUum3-16" value="&lt;font color=&quot;#ff3333&quot;&gt;cardio&lt;/font&gt;" style="text;html=1;align=center;verticalAlign=middle;resizable=0;points=[];autosize=1;strokeColor=none;fillColor=none;" vertex="1" parent="1">
          <mxGeometry x="666" y="617" width="51" height="26" as="geometry" />
        </mxCell>
        <mxCell id="wwv8mS522vPYZeWHUum3-20" value="" style="endArrow=classic;html=1;rounded=0;exitX=0.455;exitY=-0.077;exitDx=0;exitDy=0;exitPerimeter=0;" edge="1" parent="1">
          <mxGeometry width="50" height="50" relative="1" as="geometry">
            <mxPoint x="593.5" y="617" as="sourcePoint" />
            <mxPoint x="593.5" y="588" as="targetPoint" />
          </mxGeometry>
        </mxCell>
        <mxCell id="wwv8mS522vPYZeWHUum3-21" value="" style="endArrow=classic;html=1;rounded=0;exitX=0.455;exitY=-0.077;exitDx=0;exitDy=0;exitPerimeter=0;" edge="1" parent="1">
          <mxGeometry width="50" height="50" relative="1" as="geometry">
            <mxPoint x="649" y="617" as="sourcePoint" />
            <mxPoint x="649" y="588" as="targetPoint" />
          </mxGeometry>
        </mxCell>
        <mxCell id="wwv8mS522vPYZeWHUum3-22" value="" style="endArrow=classic;html=1;rounded=0;exitX=0.455;exitY=-0.077;exitDx=0;exitDy=0;exitPerimeter=0;" edge="1" parent="1">
          <mxGeometry width="50" height="50" relative="1" as="geometry">
            <mxPoint x="696" y="617" as="sourcePoint" />
            <mxPoint x="696" y="588" as="targetPoint" />
          </mxGeometry>
        </mxCell>
        <mxCell id="wwv8mS522vPYZeWHUum3-23" value="Playlist" style="text;html=1;align=center;verticalAlign=middle;resizable=0;points=[];autosize=1;strokeColor=none;fillColor=none;" vertex="1" parent="1">
          <mxGeometry x="124" y="434" width="56" height="26" as="geometry" />
        </mxCell>
        <mxCell id="wwv8mS522vPYZeWHUum3-25" value="Text" style="text;html=1;align=center;verticalAlign=middle;resizable=0;points=[];autosize=1;strokeColor=none;fillColor=none;" vertex="1" parent="1">
          <mxGeometry x="325" y="328" width="40" height="26" as="geometry" />
        </mxCell>
        <mxCell id="wwv8mS522vPYZeWHUum3-28" value="Aggregation" style="rounded=0;whiteSpace=wrap;html=1;" vertex="1" parent="1">
          <mxGeometry x="27" y="518" width="677" height="60" as="geometry" />
        </mxCell>
        <mxCell id="wwv8mS522vPYZeWHUum3-33" value="" style="endArrow=none;html=1;rounded=0;exitX=0.479;exitY=0;exitDx=0;exitDy=0;exitPerimeter=0;" edge="1" parent="1" source="wwv8mS522vPYZeWHUum3-28">
          <mxGeometry width="50" height="50" relative="1" as="geometry">
            <mxPoint x="351" y="509" as="sourcePoint" />
            <mxPoint x="351" y="496" as="targetPoint" />
          </mxGeometry>
        </mxCell>
        <mxCell id="wwv8mS522vPYZeWHUum3-34" value="" style="endArrow=none;html=1;rounded=0;" edge="1" parent="1">
          <mxGeometry width="50" height="50" relative="1" as="geometry">
            <mxPoint x="349" y="495.5" as="sourcePoint" />
            <mxPoint x="405" y="495.5" as="targetPoint" />
          </mxGeometry>
        </mxCell>
        <mxCell id="wwv8mS522vPYZeWHUum3-35" value="右边界分类" style="whiteSpace=wrap;html=1;" vertex="1" parent="1">
          <mxGeometry x="404" y="471" width="87" height="41" as="geometry" />
        </mxCell>
        <mxCell id="wwv8mS522vPYZeWHUum3-36" value="左边界分类" style="whiteSpace=wrap;html=1;" vertex="1" parent="1">
          <mxGeometry x="208" y="471" width="87" height="41" as="geometry" />
        </mxCell>
        <mxCell id="wwv8mS522vPYZeWHUum3-37" value="" style="endArrow=none;html=1;rounded=0;" edge="1" parent="1">
          <mxGeometry width="50" height="50" relative="1" as="geometry">
            <mxPoint x="295" y="495.5" as="sourcePoint" />
            <mxPoint x="351" y="495.5" as="targetPoint" />
          </mxGeometry>
        </mxCell>
        <mxCell id="wwv8mS522vPYZeWHUum3-38" value="" style="endArrow=classic;html=1;rounded=0;exitX=0.455;exitY=-0.077;exitDx=0;exitDy=0;exitPerimeter=0;" edge="1" parent="1">
          <mxGeometry width="50" height="50" relative="1" as="geometry">
            <mxPoint x="248.00000000000006" y="471" as="sourcePoint" />
            <mxPoint x="248" y="455" as="targetPoint" />
          </mxGeometry>
        </mxCell>
        <mxCell id="wwv8mS522vPYZeWHUum3-39" value="" style="endArrow=classic;html=1;rounded=0;exitX=0.5;exitY=0;exitDx=0;exitDy=0;" edge="1" parent="1" source="wwv8mS522vPYZeWHUum3-35">
          <mxGeometry width="50" height="50" relative="1" as="geometry">
            <mxPoint x="258.00000000000006" y="481" as="sourcePoint" />
            <mxPoint x="448" y="453" as="targetPoint" />
          </mxGeometry>
        </mxCell>
        <mxCell id="wwv8mS522vPYZeWHUum3-40" value="6" style="text;html=1;align=center;verticalAlign=middle;resizable=0;points=[];autosize=1;strokeColor=none;fillColor=none;" vertex="1" parent="1">
          <mxGeometry x="234" y="434" width="25" height="26" as="geometry" />
        </mxCell>
        <mxCell id="wwv8mS522vPYZeWHUum3-41" value="8" style="text;html=1;align=center;verticalAlign=middle;resizable=0;points=[];autosize=1;strokeColor=none;fillColor=none;" vertex="1" parent="1">
          <mxGeometry x="435" y="431" width="25" height="26" as="geometry" />
        </mxCell>
        <mxCell id="-rDK7IJOXSJvJCVGGd-_-2" value="What" style="text;html=1;align=center;verticalAlign=middle;resizable=0;points=[];autosize=1;strokeColor=none;fillColor=none;" vertex="1" parent="1">
          <mxGeometry x="21" y="617" width="46" height="26" as="geometry" />
        </mxCell>
        <mxCell id="-rDK7IJOXSJvJCVGGd-_-3" value="is" style="text;html=1;align=center;verticalAlign=middle;resizable=0;points=[];autosize=1;strokeColor=none;fillColor=none;" vertex="1" parent="1">
          <mxGeometry x="77" y="617" width="27" height="26" as="geometry" />
        </mxCell>
        <mxCell id="-rDK7IJOXSJvJCVGGd-_-4" value="the" style="text;html=1;align=center;verticalAlign=middle;resizable=0;points=[];autosize=1;strokeColor=none;fillColor=none;" vertex="1" parent="1">
          <mxGeometry x="119" y="617" width="35" height="26" as="geometry" />
        </mxCell>
        <mxCell id="-rDK7IJOXSJvJCVGGd-_-5" value="&lt;font color=&quot;#ff3333&quot;&gt;Playlist&lt;/font&gt;" style="text;html=1;align=center;verticalAlign=middle;resizable=0;points=[];autosize=1;strokeColor=none;fillColor=none;" vertex="1" parent="1">
          <mxGeometry x="161" y="617" width="56" height="26" as="geometry" />
        </mxCell>
        <mxCell id="-rDK7IJOXSJvJCVGGd-_-6" value="?" style="text;html=1;align=center;verticalAlign=middle;resizable=0;points=[];autosize=1;strokeColor=none;fillColor=none;" vertex="1" parent="1">
          <mxGeometry x="235" y="617" width="25" height="26" as="geometry" />
        </mxCell>
        <mxCell id="-rDK7IJOXSJvJCVGGd-_-7" value="" style="endArrow=classic;html=1;rounded=0;exitX=0.455;exitY=-0.077;exitDx=0;exitDy=0;exitPerimeter=0;" edge="1" parent="1">
          <mxGeometry width="50" height="50" relative="1" as="geometry">
            <mxPoint x="138" y="616" as="sourcePoint" />
            <mxPoint x="138" y="587" as="targetPoint" />
          </mxGeometry>
        </mxCell>
        <mxCell id="-rDK7IJOXSJvJCVGGd-_-8" value="" style="endArrow=classic;html=1;rounded=0;exitX=0.455;exitY=-0.077;exitDx=0;exitDy=0;exitPerimeter=0;" edge="1" parent="1">
          <mxGeometry width="50" height="50" relative="1" as="geometry">
            <mxPoint x="89.57999999999998" y="616" as="sourcePoint" />
            <mxPoint x="89.57999999999998" y="587" as="targetPoint" />
          </mxGeometry>
        </mxCell>
        <mxCell id="-rDK7IJOXSJvJCVGGd-_-9" value="" style="endArrow=classic;html=1;rounded=0;exitX=0.455;exitY=-0.077;exitDx=0;exitDy=0;exitPerimeter=0;" edge="1" parent="1">
          <mxGeometry width="50" height="50" relative="1" as="geometry">
            <mxPoint x="43.08000000000004" y="616" as="sourcePoint" />
            <mxPoint x="43.08000000000004" y="587" as="targetPoint" />
          </mxGeometry>
        </mxCell>
        <mxCell id="-rDK7IJOXSJvJCVGGd-_-11" value="" style="endArrow=classic;html=1;rounded=0;exitX=0.455;exitY=-0.077;exitDx=0;exitDy=0;exitPerimeter=0;" edge="1" parent="1">
          <mxGeometry width="50" height="50" relative="1" as="geometry">
            <mxPoint x="246.58000000000004" y="616" as="sourcePoint" />
            <mxPoint x="246.58000000000004" y="587" as="targetPoint" />
          </mxGeometry>
        </mxCell>
        <mxCell id="-rDK7IJOXSJvJCVGGd-_-12" value="" style="endArrow=classic;html=1;rounded=0;exitX=0.455;exitY=-0.077;exitDx=0;exitDy=0;exitPerimeter=0;" edge="1" parent="1">
          <mxGeometry width="50" height="50" relative="1" as="geometry">
            <mxPoint x="188.08000000000004" y="616" as="sourcePoint" />
            <mxPoint x="188.08000000000004" y="587" as="targetPoint" />
          </mxGeometry>
        </mxCell>
      </root>
    </mxGraphModel>
  </diagram>
  <diagram id="skz4s2jzVhXA3NXEyxiz" name="第 3 页">
    <mxGraphModel dx="1834" dy="784" grid="0" gridSize="10" guides="1" tooltips="1" connect="1" arrows="1" fold="1" page="0" pageScale="1" pageWidth="827" pageHeight="1169" math="0" shadow="0">
      <root>
        <mxCell id="0" />
        <mxCell id="1" parent="0" />
        <mxCell id="wfAsqXCFXB1NtyoPDtSP-1" value="Can" style="text;html=1;align=center;verticalAlign=middle;resizable=0;points=[];autosize=1;strokeColor=none;fillColor=none;" vertex="1" parent="1">
          <mxGeometry x="101" y="283" width="40" height="26" as="geometry" />
        </mxCell>
        <mxCell id="wfAsqXCFXB1NtyoPDtSP-2" value="you&lt;span style=&quot;white-space: pre;&quot;&gt;&#x9;&lt;/span&gt;" style="text;html=1;align=center;verticalAlign=middle;resizable=0;points=[];autosize=1;strokeColor=none;fillColor=none;" vertex="1" parent="1">
          <mxGeometry x="149" y="283" width="45" height="26" as="geometry" />
        </mxCell>
        <mxCell id="wfAsqXCFXB1NtyoPDtSP-3" value="put" style="text;html=1;align=center;verticalAlign=middle;resizable=0;points=[];autosize=1;strokeColor=none;fillColor=none;" vertex="1" parent="1">
          <mxGeometry x="201" y="283" width="35" height="26" as="geometry" />
        </mxCell>
        <mxCell id="wfAsqXCFXB1NtyoPDtSP-4" value="this" style="text;html=1;align=center;verticalAlign=middle;resizable=0;points=[];autosize=1;strokeColor=none;fillColor=none;" vertex="1" parent="1">
          <mxGeometry x="246" y="283" width="37" height="26" as="geometry" />
        </mxCell>
        <mxCell id="wfAsqXCFXB1NtyoPDtSP-5" value="tune" style="text;html=1;align=center;verticalAlign=middle;resizable=0;points=[];autosize=1;strokeColor=none;fillColor=none;" vertex="1" parent="1">
          <mxGeometry x="296" y="283" width="41" height="26" as="geometry" />
        </mxCell>
        <mxCell id="wfAsqXCFXB1NtyoPDtSP-6" value="onto" style="text;html=1;align=center;verticalAlign=middle;resizable=0;points=[];autosize=1;strokeColor=none;fillColor=none;" vertex="1" parent="1">
          <mxGeometry x="355" y="283" width="41" height="26" as="geometry" />
        </mxCell>
        <mxCell id="wfAsqXCFXB1NtyoPDtSP-7" value="" style="endArrow=classic;html=1;rounded=0;exitX=0.455;exitY=-0.077;exitDx=0;exitDy=0;exitPerimeter=0;" edge="1" parent="1">
          <mxGeometry width="50" height="50" relative="1" as="geometry">
            <mxPoint x="266" y="282" as="sourcePoint" />
            <mxPoint x="266" y="253" as="targetPoint" />
          </mxGeometry>
        </mxCell>
        <mxCell id="wfAsqXCFXB1NtyoPDtSP-8" value="" style="endArrow=classic;html=1;rounded=0;exitX=0.455;exitY=-0.077;exitDx=0;exitDy=0;exitPerimeter=0;" edge="1" parent="1">
          <mxGeometry width="50" height="50" relative="1" as="geometry">
            <mxPoint x="217.57999999999998" y="282" as="sourcePoint" />
            <mxPoint x="217.57999999999998" y="253" as="targetPoint" />
          </mxGeometry>
        </mxCell>
        <mxCell id="wfAsqXCFXB1NtyoPDtSP-9" value="" style="endArrow=classic;html=1;rounded=0;exitX=0.455;exitY=-0.077;exitDx=0;exitDy=0;exitPerimeter=0;" edge="1" parent="1">
          <mxGeometry width="50" height="50" relative="1" as="geometry">
            <mxPoint x="171.08000000000004" y="282" as="sourcePoint" />
            <mxPoint x="171.08000000000004" y="253" as="targetPoint" />
          </mxGeometry>
        </mxCell>
        <mxCell id="wfAsqXCFXB1NtyoPDtSP-10" value="" style="endArrow=classic;html=1;rounded=0;exitX=0.455;exitY=-0.077;exitDx=0;exitDy=0;exitPerimeter=0;" edge="1" parent="1">
          <mxGeometry width="50" height="50" relative="1" as="geometry">
            <mxPoint x="120.08000000000004" y="282" as="sourcePoint" />
            <mxPoint x="120.08000000000004" y="253" as="targetPoint" />
          </mxGeometry>
        </mxCell>
        <mxCell id="wfAsqXCFXB1NtyoPDtSP-11" value="" style="endArrow=classic;html=1;rounded=0;exitX=0.455;exitY=-0.077;exitDx=0;exitDy=0;exitPerimeter=0;" edge="1" parent="1">
          <mxGeometry width="50" height="50" relative="1" as="geometry">
            <mxPoint x="374.58000000000004" y="282" as="sourcePoint" />
            <mxPoint x="374.58000000000004" y="253" as="targetPoint" />
          </mxGeometry>
        </mxCell>
        <mxCell id="wfAsqXCFXB1NtyoPDtSP-12" value="" style="endArrow=classic;html=1;rounded=0;exitX=0.455;exitY=-0.077;exitDx=0;exitDy=0;exitPerimeter=0;" edge="1" parent="1">
          <mxGeometry width="50" height="50" relative="1" as="geometry">
            <mxPoint x="316.08000000000004" y="282" as="sourcePoint" />
            <mxPoint x="316.08000000000004" y="253" as="targetPoint" />
          </mxGeometry>
        </mxCell>
        <mxCell id="wfAsqXCFXB1NtyoPDtSP-13" value="&lt;font color=&quot;#ff3333&quot;&gt;latin&lt;/font&gt;" style="text;html=1;align=center;verticalAlign=middle;resizable=0;points=[];autosize=1;strokeColor=none;fillColor=none;" vertex="1" parent="1">
          <mxGeometry x="403" y="283" width="40" height="26" as="geometry" />
        </mxCell>
        <mxCell id="wfAsqXCFXB1NtyoPDtSP-14" value="&lt;font color=&quot;#ff3333&quot;&gt;dance&lt;/font&gt;" style="text;html=1;align=center;verticalAlign=middle;resizable=0;points=[];autosize=1;strokeColor=none;fillColor=none;" vertex="1" parent="1">
          <mxGeometry x="448" y="283" width="51" height="26" as="geometry" />
        </mxCell>
        <mxCell id="wfAsqXCFXB1NtyoPDtSP-15" value="&lt;font color=&quot;#ff3333&quot;&gt;cardio&lt;/font&gt;" style="text;html=1;align=center;verticalAlign=middle;resizable=0;points=[];autosize=1;strokeColor=none;fillColor=none;" vertex="1" parent="1">
          <mxGeometry x="495" y="283" width="51" height="26" as="geometry" />
        </mxCell>
        <mxCell id="wfAsqXCFXB1NtyoPDtSP-16" value="" style="endArrow=classic;html=1;rounded=0;exitX=0.455;exitY=-0.077;exitDx=0;exitDy=0;exitPerimeter=0;" edge="1" parent="1">
          <mxGeometry width="50" height="50" relative="1" as="geometry">
            <mxPoint x="422.5" y="283" as="sourcePoint" />
            <mxPoint x="422.5" y="254" as="targetPoint" />
          </mxGeometry>
        </mxCell>
        <mxCell id="wfAsqXCFXB1NtyoPDtSP-17" value="" style="endArrow=classic;html=1;rounded=0;exitX=0.455;exitY=-0.077;exitDx=0;exitDy=0;exitPerimeter=0;" edge="1" parent="1">
          <mxGeometry width="50" height="50" relative="1" as="geometry">
            <mxPoint x="478" y="283" as="sourcePoint" />
            <mxPoint x="478" y="254" as="targetPoint" />
          </mxGeometry>
        </mxCell>
        <mxCell id="wfAsqXCFXB1NtyoPDtSP-18" value="" style="endArrow=classic;html=1;rounded=0;exitX=0.455;exitY=-0.077;exitDx=0;exitDy=0;exitPerimeter=0;" edge="1" parent="1">
          <mxGeometry width="50" height="50" relative="1" as="geometry">
            <mxPoint x="525" y="283" as="sourcePoint" />
            <mxPoint x="525" y="254" as="targetPoint" />
          </mxGeometry>
        </mxCell>
        <mxCell id="wfAsqXCFXB1NtyoPDtSP-20" value="生成式模型" style="rounded=0;whiteSpace=wrap;html=1;" vertex="1" parent="1">
          <mxGeometry x="-144" y="184" width="741" height="60" as="geometry" />
        </mxCell>
        <mxCell id="wfAsqXCFXB1NtyoPDtSP-26" value="" style="endArrow=classic;html=1;rounded=0;exitX=0.455;exitY=-0.077;exitDx=0;exitDy=0;exitPerimeter=0;" edge="1" parent="1">
          <mxGeometry width="50" height="50" relative="1" as="geometry">
            <mxPoint x="-79.99999999999994" y="172" as="sourcePoint" />
            <mxPoint x="-80" y="156" as="targetPoint" />
          </mxGeometry>
        </mxCell>
        <mxCell id="wfAsqXCFXB1NtyoPDtSP-27" value="" style="endArrow=classic;html=1;rounded=0;exitX=0.5;exitY=0;exitDx=0;exitDy=0;" edge="1" parent="1">
          <mxGeometry width="50" height="50" relative="1" as="geometry">
            <mxPoint x="-127" y="175" as="sourcePoint" />
            <mxPoint x="-126.5" y="157" as="targetPoint" />
          </mxGeometry>
        </mxCell>
        <mxCell id="wfAsqXCFXB1NtyoPDtSP-28" value="dance" style="text;html=1;align=center;verticalAlign=middle;resizable=0;points=[];autosize=1;strokeColor=none;fillColor=none;" vertex="1" parent="1">
          <mxGeometry x="-107" y="135" width="51" height="26" as="geometry" />
        </mxCell>
        <mxCell id="wfAsqXCFXB1NtyoPDtSP-29" value="latin" style="text;html=1;align=center;verticalAlign=middle;resizable=0;points=[];autosize=1;strokeColor=none;fillColor=none;" vertex="1" parent="1">
          <mxGeometry x="-146.5" y="135" width="40" height="26" as="geometry" />
        </mxCell>
        <mxCell id="wfAsqXCFXB1NtyoPDtSP-30" value="What" style="text;html=1;align=center;verticalAlign=middle;resizable=0;points=[];autosize=1;strokeColor=none;fillColor=none;" vertex="1" parent="1">
          <mxGeometry x="-150" y="283" width="46" height="26" as="geometry" />
        </mxCell>
        <mxCell id="wfAsqXCFXB1NtyoPDtSP-31" value="is" style="text;html=1;align=center;verticalAlign=middle;resizable=0;points=[];autosize=1;strokeColor=none;fillColor=none;" vertex="1" parent="1">
          <mxGeometry x="-94" y="283" width="27" height="26" as="geometry" />
        </mxCell>
        <mxCell id="wfAsqXCFXB1NtyoPDtSP-32" value="the" style="text;html=1;align=center;verticalAlign=middle;resizable=0;points=[];autosize=1;strokeColor=none;fillColor=none;" vertex="1" parent="1">
          <mxGeometry x="-52" y="283" width="35" height="26" as="geometry" />
        </mxCell>
        <mxCell id="wfAsqXCFXB1NtyoPDtSP-33" value="&lt;font color=&quot;#ff3333&quot;&gt;Playlist&lt;/font&gt;" style="text;html=1;align=center;verticalAlign=middle;resizable=0;points=[];autosize=1;strokeColor=none;fillColor=none;" vertex="1" parent="1">
          <mxGeometry x="-10" y="283" width="56" height="26" as="geometry" />
        </mxCell>
        <mxCell id="wfAsqXCFXB1NtyoPDtSP-34" value="?" style="text;html=1;align=center;verticalAlign=middle;resizable=0;points=[];autosize=1;strokeColor=none;fillColor=none;" vertex="1" parent="1">
          <mxGeometry x="64" y="283" width="25" height="26" as="geometry" />
        </mxCell>
        <mxCell id="wfAsqXCFXB1NtyoPDtSP-35" value="" style="endArrow=classic;html=1;rounded=0;exitX=0.455;exitY=-0.077;exitDx=0;exitDy=0;exitPerimeter=0;" edge="1" parent="1">
          <mxGeometry width="50" height="50" relative="1" as="geometry">
            <mxPoint x="-33" y="282" as="sourcePoint" />
            <mxPoint x="-33" y="253" as="targetPoint" />
          </mxGeometry>
        </mxCell>
        <mxCell id="wfAsqXCFXB1NtyoPDtSP-36" value="" style="endArrow=classic;html=1;rounded=0;exitX=0.455;exitY=-0.077;exitDx=0;exitDy=0;exitPerimeter=0;" edge="1" parent="1">
          <mxGeometry width="50" height="50" relative="1" as="geometry">
            <mxPoint x="-81.42000000000002" y="282" as="sourcePoint" />
            <mxPoint x="-81.42000000000002" y="253" as="targetPoint" />
          </mxGeometry>
        </mxCell>
        <mxCell id="wfAsqXCFXB1NtyoPDtSP-37" value="" style="endArrow=classic;html=1;rounded=0;exitX=0.455;exitY=-0.077;exitDx=0;exitDy=0;exitPerimeter=0;" edge="1" parent="1">
          <mxGeometry width="50" height="50" relative="1" as="geometry">
            <mxPoint x="-127.91999999999996" y="282" as="sourcePoint" />
            <mxPoint x="-127.91999999999996" y="253" as="targetPoint" />
          </mxGeometry>
        </mxCell>
        <mxCell id="wfAsqXCFXB1NtyoPDtSP-38" value="" style="endArrow=classic;html=1;rounded=0;exitX=0.455;exitY=-0.077;exitDx=0;exitDy=0;exitPerimeter=0;" edge="1" parent="1">
          <mxGeometry width="50" height="50" relative="1" as="geometry">
            <mxPoint x="75.58000000000004" y="282" as="sourcePoint" />
            <mxPoint x="75.58000000000004" y="253" as="targetPoint" />
          </mxGeometry>
        </mxCell>
        <mxCell id="wfAsqXCFXB1NtyoPDtSP-39" value="" style="endArrow=classic;html=1;rounded=0;exitX=0.455;exitY=-0.077;exitDx=0;exitDy=0;exitPerimeter=0;" edge="1" parent="1">
          <mxGeometry width="50" height="50" relative="1" as="geometry">
            <mxPoint x="17.08000000000004" y="282" as="sourcePoint" />
            <mxPoint x="17.08000000000004" y="253" as="targetPoint" />
          </mxGeometry>
        </mxCell>
        <mxCell id="wfAsqXCFXB1NtyoPDtSP-40" value="" style="endArrow=classic;html=1;rounded=0;exitX=0.455;exitY=-0.077;exitDx=0;exitDy=0;exitPerimeter=0;" edge="1" parent="1">
          <mxGeometry width="50" height="50" relative="1" as="geometry">
            <mxPoint x="-32.99999999999994" y="172" as="sourcePoint" />
            <mxPoint x="-33" y="156" as="targetPoint" />
          </mxGeometry>
        </mxCell>
        <mxCell id="wfAsqXCFXB1NtyoPDtSP-41" value="cardio" style="text;html=1;align=center;verticalAlign=middle;resizable=0;points=[];autosize=1;strokeColor=none;fillColor=none;" vertex="1" parent="1">
          <mxGeometry x="-60" y="135" width="51" height="26" as="geometry" />
        </mxCell>
        <mxCell id="wfAsqXCFXB1NtyoPDtSP-42" value="?" style="text;html=1;align=center;verticalAlign=middle;resizable=0;points=[];autosize=1;strokeColor=none;fillColor=none;" vertex="1" parent="1">
          <mxGeometry x="555" y="283" width="25" height="26" as="geometry" />
        </mxCell>
        <mxCell id="wfAsqXCFXB1NtyoPDtSP-43" value="" style="endArrow=classic;html=1;rounded=0;exitX=0.455;exitY=-0.077;exitDx=0;exitDy=0;exitPerimeter=0;" edge="1" parent="1">
          <mxGeometry width="50" height="50" relative="1" as="geometry">
            <mxPoint x="566.58" y="282" as="sourcePoint" />
            <mxPoint x="566.58" y="253" as="targetPoint" />
          </mxGeometry>
        </mxCell>
      </root>
    </mxGraphModel>
  </diagram>
</mxfile>
